<svg xmlns="http://www.w3.org/2000/svg" xmlns:xlink="http://www.w3.org/1999/xlink" width="120" zoomAndPan="magnify" viewBox="0 0 90 52.499999" height="70" preserveAspectRatio="xMidYMid meet" version="1.0"><defs><g/><clipPath id="a72dcbb4b5"><path d="M 78 22 L 84 22 L 84 29 L 78 29 Z M 78 22 " clip-rule="nonzero"/></clipPath><clipPath id="103b4496cd"><path d="M 76.957031 23.234375 L 81.410156 19.296875 L 86.824219 25.417969 L 82.371094 29.355469 Z M 76.957031 23.234375 " clip-rule="nonzero"/></clipPath><clipPath id="40ea67899d"><path d="M 78.703125 25.210938 L 80.433594 27.164062 C 80.898438 27.6875 81.550781 28.007812 82.246094 28.050781 C 82.945312 28.09375 83.632812 27.855469 84.15625 27.394531 C 84.679688 26.929688 85 26.277344 85.042969 25.582031 C 85.085938 24.882812 84.847656 24.195312 84.386719 23.671875 L 82.65625 21.714844 C 82.191406 21.191406 81.539062 20.875 80.84375 20.832031 C 80.144531 20.789062 79.457031 21.023438 78.933594 21.488281 C 78.410156 21.949219 78.089844 22.601562 78.046875 23.300781 C 78.003906 24 78.242188 24.683594 78.703125 25.210938 Z M 78.703125 25.210938 " clip-rule="nonzero"/></clipPath><clipPath id="f1b8963798"><path d="M 76.957031 23.234375 L 80.855469 19.789062 L 86.269531 25.910156 L 82.371094 29.355469 Z M 76.957031 23.234375 " clip-rule="nonzero"/></clipPath><clipPath id="a9cddcafd3"><path d="M 76.957031 23.234375 L 80.855469 19.789062 L 86.269531 25.910156 L 82.371094 29.355469 Z M 76.957031 23.234375 " clip-rule="nonzero"/></clipPath><clipPath id="89e4da5c40"><path d="M 81 19 L 87 19 L 87 25 L 81 25 Z M 81 19 " clip-rule="nonzero"/></clipPath><clipPath id="ab505b3185"><path d="M 80.402344 20.09375 L 84.855469 16.15625 L 90.269531 22.28125 L 85.816406 26.214844 Z M 80.402344 20.09375 " clip-rule="nonzero"/></clipPath><clipPath id="94a018bf48"><path d="M 82.148438 22.070312 L 83.878906 24.027344 C 84.339844 24.550781 84.992188 24.867188 85.691406 24.910156 C 86.390625 24.953125 87.078125 24.71875 87.601562 24.253906 C 88.125 23.792969 88.441406 23.140625 88.484375 22.441406 C 88.527344 21.742188 88.292969 21.054688 87.828125 20.53125 L 86.101562 18.578125 C 85.636719 18.050781 84.984375 17.734375 84.285156 17.691406 C 83.589844 17.648438 82.902344 17.882812 82.378906 18.347656 C 81.855469 18.8125 81.535156 19.464844 81.492188 20.160156 C 81.449219 20.859375 81.6875 21.546875 82.148438 22.070312 Z M 82.148438 22.070312 " clip-rule="nonzero"/></clipPath><clipPath id="5106e623d5"><path d="M 80.402344 20.09375 L 84.296875 16.648438 L 89.710938 22.773438 L 85.816406 26.214844 Z M 80.402344 20.09375 " clip-rule="nonzero"/></clipPath><clipPath id="1e91ee895a"><path d="M 80.402344 20.09375 L 84.296875 16.648438 L 89.710938 22.773438 L 85.816406 26.214844 Z M 80.402344 20.09375 " clip-rule="nonzero"/></clipPath></defs><g clip-path="url(#a72dcbb4b5)"><g clip-path="url(#103b4496cd)"><g clip-path="url(#40ea67899d)"><g clip-path="url(#f1b8963798)"><g clip-path="url(#a9cddcafd3)"><path fill="#ffde59" d="M 83.554688 22.738281 L 78.851562 22.425781 C 77.945312 22.363281 77.753906 24.132812 78.828125 24.183594 L 81.753906 24.328125 L 81.464844 27.269531 C 81.378906 28.164062 83.125 28.300781 83.195312 27.386719 Z M 83.554688 22.738281 " fill-opacity="1" fill-rule="nonzero"/></g></g></g></g></g><g clip-path="url(#89e4da5c40)"><g clip-path="url(#ab505b3185)"><g clip-path="url(#94a018bf48)"><g clip-path="url(#5106e623d5)"><g clip-path="url(#1e91ee895a)"><path fill="#facc15" d="M 87 19.597656 L 82.296875 19.285156 C 81.390625 19.226562 81.195312 20.992188 82.273438 21.046875 L 85.199219 21.1875 L 84.910156 24.128906 C 84.824219 25.027344 86.570312 25.160156 86.640625 24.25 Z M 87 19.597656 " fill-opacity="1" fill-rule="nonzero"/></g></g></g></g></g><g fill="#ffffff" fill-opacity="1"><g transform="translate(5.313413, 33.599434)"><g><path d="M 2.390625 -7.484375 L 2.390625 -4.71875 L 6.828125 -4.71875 C 7.066406 -4.71875 7.242188 -4.644531 7.359375 -4.5 C 7.484375 -4.363281 7.546875 -4.210938 7.546875 -4.046875 C 7.546875 -3.878906 7.484375 -3.726562 7.359375 -3.59375 C 7.242188 -3.457031 7.066406 -3.390625 6.828125 -3.390625 L 2.390625 -3.390625 L 2.390625 -0.75 C 2.390625 -0.507812 2.304688 -0.320312 2.140625 -0.1875 C 1.984375 -0.0625 1.804688 0 1.609375 0 C 1.398438 0 1.210938 -0.0625 1.046875 -0.1875 C 0.878906 -0.320312 0.796875 -0.503906 0.796875 -0.734375 L 0.796875 -8.015625 C 0.796875 -8.234375 0.882812 -8.421875 1.0625 -8.578125 C 1.25 -8.742188 1.460938 -8.828125 1.703125 -8.828125 L 7.078125 -8.828125 C 7.328125 -8.828125 7.507812 -8.753906 7.625 -8.609375 C 7.75 -8.472656 7.8125 -8.320312 7.8125 -8.15625 C 7.8125 -7.988281 7.75 -7.832031 7.625 -7.6875 C 7.507812 -7.550781 7.328125 -7.484375 7.078125 -7.484375 Z M 2.390625 -7.484375 "/></g></g></g><g fill="#ffffff" fill-opacity="1"><g transform="translate(13.338168, 33.599434)"><g><path d="M 2.0625 -0.6875 C 2.0625 -0.507812 1.984375 -0.347656 1.828125 -0.203125 C 1.679688 -0.0664062 1.5 0 1.28125 0 C 1.039062 0 0.847656 -0.0664062 0.703125 -0.203125 C 0.554688 -0.347656 0.484375 -0.507812 0.484375 -0.6875 L 0.484375 -8.28125 C 0.484375 -8.457031 0.554688 -8.613281 0.703125 -8.75 C 0.847656 -8.894531 1.039062 -8.96875 1.28125 -8.96875 C 1.5 -8.96875 1.679688 -8.894531 1.828125 -8.75 C 1.984375 -8.613281 2.0625 -8.457031 2.0625 -8.28125 Z M 2.0625 -0.6875 "/></g></g></g><g fill="#ffffff" fill-opacity="1"><g transform="translate(15.610949, 33.599434)"><g><path d="M 3.96875 -7.1875 C 4.707031 -7.1875 5.351562 -7.03125 5.90625 -6.71875 C 6.457031 -6.414062 6.882812 -5.984375 7.1875 -5.421875 C 7.5 -4.867188 7.65625 -4.226562 7.65625 -3.5 C 7.644531 -2.769531 7.484375 -2.132812 7.171875 -1.59375 C 6.859375 -1.050781 6.425781 -0.625 5.875 -0.3125 C 5.332031 -0.0078125 4.695312 0.140625 3.96875 0.140625 C 3.238281 0.140625 2.597656 -0.0078125 2.046875 -0.3125 C 1.492188 -0.625 1.0625 -1.050781 0.75 -1.59375 C 0.445312 -2.132812 0.289062 -2.769531 0.28125 -3.5 C 0.28125 -4.226562 0.429688 -4.867188 0.734375 -5.421875 C 1.046875 -5.984375 1.476562 -6.414062 2.03125 -6.71875 C 2.59375 -7.03125 3.238281 -7.1875 3.96875 -7.1875 Z M 3.96875 -1.25 C 4.59375 -1.25 5.09375 -1.457031 5.46875 -1.875 C 5.84375 -2.289062 6.03125 -2.832031 6.03125 -3.5 C 6.03125 -4.175781 5.84375 -4.726562 5.46875 -5.15625 C 5.09375 -5.59375 4.59375 -5.8125 3.96875 -5.8125 C 3.34375 -5.8125 2.84375 -5.59375 2.46875 -5.15625 C 2.09375 -4.726562 1.90625 -4.175781 1.90625 -3.5 C 1.90625 -2.832031 2.09375 -2.289062 2.46875 -1.875 C 2.84375 -1.457031 3.34375 -1.25 3.96875 -1.25 Z M 3.96875 -1.25 "/></g></g></g><g fill="#ffffff" fill-opacity="1"><g transform="translate(23.303057, 33.599434)"><g><path d="M 0.3125 -6.015625 C 0.226562 -6.210938 0.222656 -6.390625 0.296875 -6.546875 C 0.367188 -6.703125 0.476562 -6.820312 0.625 -6.90625 C 0.769531 -7 0.921875 -7.046875 1.078125 -7.046875 C 1.234375 -7.046875 1.378906 -7 1.515625 -6.90625 C 1.660156 -6.8125 1.753906 -6.703125 1.796875 -6.578125 L 3.609375 -2.46875 L 5.328125 -6.03125 C 5.398438 -6.1875 5.5 -6.300781 5.625 -6.375 C 5.757812 -6.457031 5.90625 -6.5 6.0625 -6.5 C 6.394531 -6.5 6.640625 -6.347656 6.796875 -6.046875 L 8.53125 -2.4375 L 10.328125 -6.5625 C 10.472656 -6.882812 10.722656 -7.046875 11.078125 -7.046875 C 11.316406 -7.046875 11.519531 -6.945312 11.6875 -6.75 C 11.863281 -6.550781 11.890625 -6.3125 11.765625 -6.03125 L 9.3125 -0.265625 C 9.207031 0.00390625 8.972656 0.140625 8.609375 0.140625 C 8.453125 0.140625 8.304688 0.109375 8.171875 0.046875 C 8.035156 -0.015625 7.929688 -0.113281 7.859375 -0.25 L 6.078125 -4 L 4.265625 -0.265625 C 4.140625 0.00390625 3.890625 0.140625 3.515625 0.140625 C 3.359375 0.140625 3.21875 0.109375 3.09375 0.046875 C 2.976562 -0.015625 2.882812 -0.125 2.8125 -0.28125 Z M 0.3125 -6.015625 "/></g></g></g><g fill="#ffffff" fill-opacity="1"><g transform="translate(35.37499, 33.599434)"><g><path d="M 3.96875 -1.234375 C 4.226562 -1.234375 4.488281 -1.269531 4.75 -1.34375 C 5.007812 -1.414062 5.25 -1.539062 5.46875 -1.71875 C 5.6875 -1.914062 5.894531 -2.003906 6.09375 -1.984375 C 6.300781 -1.972656 6.472656 -1.898438 6.609375 -1.765625 C 6.742188 -1.628906 6.8125 -1.460938 6.8125 -1.265625 C 6.8125 -1.066406 6.710938 -0.875 6.515625 -0.6875 C 6.191406 -0.375 5.804688 -0.15625 5.359375 -0.03125 C 4.921875 0.09375 4.46875 0.148438 4 0.140625 C 3.28125 0.140625 2.644531 -0.00390625 2.09375 -0.296875 C 1.550781 -0.597656 1.125 -1.007812 0.8125 -1.53125 C 0.5 -2.0625 0.34375 -2.675781 0.34375 -3.375 C 0.34375 -4.125 0.488281 -4.785156 0.78125 -5.359375 C 1.082031 -5.929688 1.503906 -6.378906 2.046875 -6.703125 C 2.585938 -7.023438 3.226562 -7.1875 3.96875 -7.1875 C 4.707031 -7.1875 5.332031 -7.035156 5.84375 -6.734375 C 6.363281 -6.441406 6.757812 -6.023438 7.03125 -5.484375 C 7.300781 -4.941406 7.4375 -4.3125 7.4375 -3.59375 C 7.4375 -3.363281 7.390625 -3.164062 7.296875 -3 C 7.210938 -2.84375 6.96875 -2.765625 6.5625 -2.765625 L 1.953125 -2.765625 C 2.078125 -2.304688 2.320312 -1.9375 2.6875 -1.65625 C 3.050781 -1.375 3.476562 -1.234375 3.96875 -1.234375 Z M 3.984375 -5.828125 C 3.441406 -5.828125 2.988281 -5.65625 2.625 -5.3125 C 2.269531 -4.976562 2.039062 -4.535156 1.9375 -3.984375 L 5.96875 -3.984375 C 5.925781 -4.535156 5.75 -4.976562 5.4375 -5.3125 C 5.125 -5.65625 4.640625 -5.828125 3.984375 -5.828125 Z M 3.984375 -5.828125 "/></g></g></g><g fill="#ffffff" fill-opacity="1"><g transform="translate(43.427461, 33.599434)"><g><path d="M 4.671875 -7.1875 C 5.316406 -7.1875 5.863281 -7.046875 6.3125 -6.765625 C 6.769531 -6.484375 7.117188 -6.09375 7.359375 -5.59375 C 7.597656 -5.09375 7.71875 -4.515625 7.71875 -3.859375 L 7.71875 -0.71875 C 7.71875 -0.507812 7.644531 -0.335938 7.5 -0.203125 C 7.363281 -0.0664062 7.171875 0 6.921875 0 C 6.691406 0 6.503906 -0.0664062 6.359375 -0.203125 C 6.210938 -0.335938 6.140625 -0.507812 6.140625 -0.71875 L 6.140625 -3.875 C 6.140625 -4.445312 6.003906 -4.910156 5.734375 -5.265625 C 5.460938 -5.628906 5.03125 -5.8125 4.4375 -5.8125 C 4.257812 -5.8125 4.046875 -5.757812 3.796875 -5.65625 C 3.554688 -5.5625 3.316406 -5.414062 3.078125 -5.21875 C 2.847656 -5.03125 2.65625 -4.785156 2.5 -4.484375 C 2.34375 -4.191406 2.265625 -3.84375 2.265625 -3.4375 L 2.265625 -0.703125 C 2.265625 -0.234375 2.015625 0 1.515625 0 C 1.273438 0 1.078125 -0.0625 0.921875 -0.1875 C 0.765625 -0.3125 0.6875 -0.484375 0.6875 -0.703125 L 0.6875 -6.34375 C 0.6875 -6.570312 0.765625 -6.742188 0.921875 -6.859375 C 1.085938 -6.984375 1.273438 -7.046875 1.484375 -7.046875 C 1.679688 -7.046875 1.859375 -6.984375 2.015625 -6.859375 C 2.179688 -6.742188 2.265625 -6.582031 2.265625 -6.375 L 2.265625 -6.28125 C 2.671875 -6.644531 3.082031 -6.882812 3.5 -7 C 3.925781 -7.125 4.316406 -7.1875 4.671875 -7.1875 Z M 4.671875 -7.1875 "/></g></g></g><g fill="#facc15" fill-opacity="1"><g transform="translate(51.850666, 33.599434)"><g><path d="M 3.8125 -1.3125 C 4.019531 -1.4375 4.207031 -1.476562 4.375 -1.4375 C 4.550781 -1.40625 4.691406 -1.328125 4.796875 -1.203125 C 4.910156 -1.078125 4.96875 -0.929688 4.96875 -0.765625 C 4.96875 -0.640625 4.925781 -0.515625 4.84375 -0.390625 C 4.769531 -0.273438 4.65625 -0.175781 4.5 -0.09375 C 4.300781 0.0078125 4.117188 0.0703125 3.953125 0.09375 C 3.785156 0.125 3.59375 0.140625 3.375 0.140625 C 2.769531 0.140625 2.304688 0.015625 1.984375 -0.234375 C 1.660156 -0.484375 1.4375 -0.804688 1.3125 -1.203125 C 1.195312 -1.597656 1.140625 -2.019531 1.140625 -2.46875 L 1.140625 -5.734375 L 0.609375 -5.734375 C 0.347656 -5.734375 0.15625 -5.800781 0.03125 -5.9375 C -0.09375 -6.082031 -0.15625 -6.234375 -0.15625 -6.390625 C -0.15625 -6.554688 -0.09375 -6.707031 0.03125 -6.84375 C 0.164062 -6.976562 0.359375 -7.046875 0.609375 -7.046875 L 1.140625 -7.046875 L 1.140625 -8.25 C 1.140625 -8.488281 1.21875 -8.664062 1.375 -8.78125 C 1.53125 -8.90625 1.707031 -8.96875 1.90625 -8.96875 C 2.101562 -8.96875 2.285156 -8.90625 2.453125 -8.78125 C 2.617188 -8.664062 2.703125 -8.488281 2.703125 -8.25 L 2.703125 -7.046875 L 3.78125 -7.046875 C 4.019531 -7.046875 4.203125 -6.976562 4.328125 -6.84375 C 4.460938 -6.707031 4.53125 -6.554688 4.53125 -6.390625 C 4.53125 -6.222656 4.460938 -6.070312 4.328125 -5.9375 C 4.203125 -5.800781 4.019531 -5.734375 3.78125 -5.734375 L 2.703125 -5.734375 L 2.703125 -2.46875 C 2.703125 -2.257812 2.710938 -2.0625 2.734375 -1.875 C 2.765625 -1.6875 2.828125 -1.53125 2.921875 -1.40625 C 3.023438 -1.28125 3.175781 -1.21875 3.375 -1.21875 C 3.445312 -1.21875 3.523438 -1.226562 3.609375 -1.25 C 3.691406 -1.269531 3.757812 -1.289062 3.8125 -1.3125 Z M 3.8125 -1.3125 "/></g></g></g><g fill="#facc15" fill-opacity="1"><g transform="translate(56.65986, 33.599434)"><g><path d="M 3.96875 -1.234375 C 4.226562 -1.234375 4.488281 -1.269531 4.75 -1.34375 C 5.007812 -1.414062 5.25 -1.539062 5.46875 -1.71875 C 5.6875 -1.914062 5.894531 -2.003906 6.09375 -1.984375 C 6.300781 -1.972656 6.472656 -1.898438 6.609375 -1.765625 C 6.742188 -1.628906 6.8125 -1.460938 6.8125 -1.265625 C 6.8125 -1.066406 6.710938 -0.875 6.515625 -0.6875 C 6.191406 -0.375 5.804688 -0.15625 5.359375 -0.03125 C 4.921875 0.09375 4.46875 0.148438 4 0.140625 C 3.28125 0.140625 2.644531 -0.00390625 2.09375 -0.296875 C 1.550781 -0.597656 1.125 -1.007812 0.8125 -1.53125 C 0.5 -2.0625 0.34375 -2.675781 0.34375 -3.375 C 0.34375 -4.125 0.488281 -4.785156 0.78125 -5.359375 C 1.082031 -5.929688 1.503906 -6.378906 2.046875 -6.703125 C 2.585938 -7.023438 3.226562 -7.1875 3.96875 -7.1875 C 4.707031 -7.1875 5.332031 -7.035156 5.84375 -6.734375 C 6.363281 -6.441406 6.757812 -6.023438 7.03125 -5.484375 C 7.300781 -4.941406 7.4375 -4.3125 7.4375 -3.59375 C 7.4375 -3.363281 7.390625 -3.164062 7.296875 -3 C 7.210938 -2.84375 6.96875 -2.765625 6.5625 -2.765625 L 1.953125 -2.765625 C 2.078125 -2.304688 2.320312 -1.9375 2.6875 -1.65625 C 3.050781 -1.375 3.476562 -1.234375 3.96875 -1.234375 Z M 3.984375 -5.828125 C 3.441406 -5.828125 2.988281 -5.65625 2.625 -5.3125 C 2.269531 -4.976562 2.039062 -4.535156 1.9375 -3.984375 L 5.96875 -3.984375 C 5.925781 -4.535156 5.75 -4.976562 5.4375 -5.3125 C 5.125 -5.65625 4.640625 -5.828125 3.984375 -5.828125 Z M 3.984375 -5.828125 "/></g></g></g><g fill="#facc15" fill-opacity="1"><g transform="translate(64.712332, 33.599434)"><g><path d="M 5.46875 -5.15625 C 5.257812 -5.40625 5.007812 -5.578125 4.71875 -5.671875 C 4.4375 -5.773438 4.15625 -5.828125 3.875 -5.828125 C 3.269531 -5.828125 2.78125 -5.617188 2.40625 -5.203125 C 2.039062 -4.785156 1.859375 -4.21875 1.859375 -3.5 C 1.859375 -2.820312 2.046875 -2.273438 2.421875 -1.859375 C 2.804688 -1.441406 3.3125 -1.234375 3.9375 -1.234375 C 4.21875 -1.234375 4.5 -1.28125 4.78125 -1.375 C 5.070312 -1.476562 5.328125 -1.640625 5.546875 -1.859375 C 5.742188 -2.054688 5.941406 -2.160156 6.140625 -2.171875 C 6.335938 -2.179688 6.5 -2.125 6.625 -2 C 6.757812 -1.882812 6.832031 -1.734375 6.84375 -1.546875 C 6.863281 -1.359375 6.785156 -1.164062 6.609375 -0.96875 C 6.253906 -0.570312 5.84375 -0.285156 5.375 -0.109375 C 4.90625 0.0546875 4.421875 0.140625 3.921875 0.140625 C 3.191406 0.140625 2.550781 -0.0078125 2 -0.3125 C 1.445312 -0.625 1.019531 -1.050781 0.71875 -1.59375 C 0.414062 -2.132812 0.265625 -2.769531 0.265625 -3.5 C 0.265625 -4.238281 0.414062 -4.882812 0.71875 -5.4375 C 1.019531 -6 1.441406 -6.429688 1.984375 -6.734375 C 2.523438 -7.035156 3.15625 -7.1875 3.875 -7.1875 C 4.382812 -7.1875 4.859375 -7.109375 5.296875 -6.953125 C 5.734375 -6.796875 6.140625 -6.503906 6.515625 -6.078125 C 6.679688 -5.878906 6.75 -5.6875 6.71875 -5.5 C 6.695312 -5.3125 6.617188 -5.15625 6.484375 -5.03125 C 6.347656 -4.914062 6.179688 -4.859375 5.984375 -4.859375 C 5.796875 -4.867188 5.625 -4.96875 5.46875 -5.15625 Z M 5.46875 -5.15625 "/></g></g></g><g fill="#facc15" fill-opacity="1"><g transform="translate(71.642131, 33.599434)"><g><path d="M 4.59375 -7.1875 C 5.238281 -7.1875 5.785156 -7.046875 6.234375 -6.765625 C 6.691406 -6.484375 7.039062 -6.09375 7.28125 -5.59375 C 7.519531 -5.09375 7.640625 -4.515625 7.640625 -3.859375 L 7.640625 -0.71875 C 7.640625 -0.507812 7.570312 -0.335938 7.4375 -0.203125 C 7.300781 -0.0664062 7.101562 0 6.84375 0 C 6.613281 0 6.425781 -0.0664062 6.28125 -0.203125 C 6.132812 -0.335938 6.0625 -0.507812 6.0625 -0.71875 L 6.0625 -3.875 C 6.0625 -4.445312 5.921875 -4.910156 5.640625 -5.265625 C 5.367188 -5.628906 4.941406 -5.8125 4.359375 -5.8125 C 4.191406 -5.8125 3.988281 -5.769531 3.75 -5.6875 C 3.507812 -5.613281 3.28125 -5.488281 3.0625 -5.3125 C 2.84375 -5.132812 2.65625 -4.90625 2.5 -4.625 C 2.351562 -4.351562 2.28125 -4.015625 2.28125 -3.609375 L 2.28125 -0.71875 C 2.28125 -0.507812 2.210938 -0.335938 2.078125 -0.203125 C 1.953125 -0.0664062 1.765625 0 1.515625 0 C 1.265625 0 1.0625 -0.0664062 0.90625 -0.203125 C 0.757812 -0.335938 0.6875 -0.507812 0.6875 -0.71875 L 0.6875 -8.296875 C 0.6875 -8.515625 0.769531 -8.679688 0.9375 -8.796875 C 1.113281 -8.910156 1.300781 -8.96875 1.5 -8.96875 C 1.695312 -8.96875 1.875 -8.910156 2.03125 -8.796875 C 2.195312 -8.679688 2.28125 -8.515625 2.28125 -8.296875 L 2.28125 -6.421875 C 2.664062 -6.742188 3.0625 -6.953125 3.46875 -7.046875 C 3.875 -7.140625 4.25 -7.1875 4.59375 -7.1875 Z M 4.59375 -7.1875 "/></g></g></g></svg>