<svg xmlns="http://www.w3.org/2000/svg" xmlns:xlink="http://www.w3.org/1999/xlink" width="250" zoomAndPan="magnify" viewBox="0 0 187.5 74.999997" height="100" preserveAspectRatio="xMidYMid meet" version="1.0"><defs><g/><clipPath id="f887944649"><path d="M 123 26 L 129 26 L 129 32 L 123 32 Z M 123 26 " clip-rule="nonzero"/></clipPath><clipPath id="07f8c59786"><path d="M 122.273438 27.230469 L 126.121094 23.675781 L 131.195312 29.167969 L 127.351562 32.722656 Z M 122.273438 27.230469 " clip-rule="nonzero"/></clipPath><clipPath id="59ad4200ae"><path d="M 122.273438 27.230469 L 126.121094 23.675781 L 131.195312 29.167969 L 127.351562 32.722656 Z M 122.273438 27.230469 " clip-rule="nonzero"/></clipPath><clipPath id="f45dc8276b"><path d="M 125 23 L 132 23 L 132 30 L 125 30 Z M 125 23 " clip-rule="nonzero"/></clipPath><clipPath id="5bbffe7ac1"><path d="M 124.910156 24.796875 L 128.753906 21.242188 L 133.832031 26.734375 L 129.984375 30.289062 Z M 124.910156 24.796875 " clip-rule="nonzero"/></clipPath><clipPath id="fde6bce1f0"><path d="M 124.910156 24.796875 L 128.753906 21.242188 L 133.832031 26.734375 L 129.984375 30.289062 Z M 124.910156 24.796875 " clip-rule="nonzero"/></clipPath></defs><g clip-path="url(#f887944649)"><g clip-path="url(#07f8c59786)"><g clip-path="url(#59ad4200ae)"><path fill="#18cb96" d="M 128.492188 26.625 L 124.046875 26.425781 C 123.1875 26.386719 123.042969 28.0625 124.0625 28.089844 L 126.828125 28.164062 L 126.617188 30.949219 C 126.550781 31.796875 128.207031 31.886719 128.253906 31.023438 Z M 128.492188 26.625 " fill-opacity="1" fill-rule="nonzero"/></g></g></g><g clip-path="url(#f45dc8276b)"><g clip-path="url(#5bbffe7ac1)"><g clip-path="url(#fde6bce1f0)"><path fill="#18cb96" d="M 131.128906 24.1875 L 126.679688 23.992188 C 125.820312 23.953125 125.675781 25.625 126.695312 25.652344 L 129.460938 25.726562 L 129.25 28.511719 C 129.1875 29.359375 130.839844 29.449219 130.886719 28.589844 Z M 131.128906 24.1875 " fill-opacity="1" fill-rule="nonzero"/></g></g></g><g fill="#ffffff" fill-opacity="1"><g transform="translate(56.046203, 36.448917)"><g><path d="M 2.234375 -6.96875 L 2.234375 -4.40625 L 6.359375 -4.40625 C 6.585938 -4.40625 6.753906 -4.335938 6.859375 -4.203125 C 6.972656 -4.066406 7.03125 -3.921875 7.03125 -3.765625 C 7.03125 -3.609375 6.972656 -3.46875 6.859375 -3.34375 C 6.753906 -3.21875 6.585938 -3.15625 6.359375 -3.15625 L 2.234375 -3.15625 L 2.234375 -0.703125 C 2.234375 -0.472656 2.15625 -0.296875 2 -0.171875 C 1.84375 -0.0546875 1.675781 0 1.5 0 C 1.3125 0 1.140625 -0.0546875 0.984375 -0.171875 C 0.828125 -0.296875 0.75 -0.46875 0.75 -0.6875 L 0.75 -7.453125 C 0.75 -7.660156 0.832031 -7.835938 1 -7.984375 C 1.164062 -8.140625 1.363281 -8.21875 1.59375 -8.21875 L 6.59375 -8.21875 C 6.820312 -8.21875 6.992188 -8.148438 7.109375 -8.015625 C 7.222656 -7.890625 7.28125 -7.75 7.28125 -7.59375 C 7.28125 -7.4375 7.222656 -7.289062 7.109375 -7.15625 C 6.992188 -7.03125 6.820312 -6.96875 6.59375 -6.96875 Z M 2.234375 -6.96875 "/></g></g></g><g fill="#ffffff" fill-opacity="1"><g transform="translate(63.516925, 36.448917)"><g><path d="M 1.921875 -0.640625 C 1.921875 -0.472656 1.847656 -0.320312 1.703125 -0.1875 C 1.566406 -0.0625 1.394531 0 1.1875 0 C 0.96875 0 0.789062 -0.0625 0.65625 -0.1875 C 0.519531 -0.320312 0.453125 -0.472656 0.453125 -0.640625 L 0.453125 -7.703125 C 0.453125 -7.878906 0.519531 -8.03125 0.65625 -8.15625 C 0.789062 -8.28125 0.96875 -8.34375 1.1875 -8.34375 C 1.394531 -8.34375 1.566406 -8.28125 1.703125 -8.15625 C 1.847656 -8.03125 1.921875 -7.878906 1.921875 -7.703125 Z M 1.921875 -0.640625 "/></g></g></g><g fill="#ffffff" fill-opacity="1"><g transform="translate(65.63284, 36.448917)"><g><path d="M 3.6875 -6.703125 C 4.375 -6.703125 4.972656 -6.554688 5.484375 -6.265625 C 6.003906 -5.972656 6.40625 -5.566406 6.6875 -5.046875 C 6.976562 -4.535156 7.125 -3.9375 7.125 -3.25 C 7.113281 -2.582031 6.960938 -1.992188 6.671875 -1.484375 C 6.390625 -0.972656 5.988281 -0.578125 5.46875 -0.296875 C 4.957031 -0.015625 4.363281 0.125 3.6875 0.125 C 3.019531 0.125 2.425781 -0.015625 1.90625 -0.296875 C 1.394531 -0.578125 0.992188 -0.972656 0.703125 -1.484375 C 0.410156 -1.992188 0.265625 -2.582031 0.265625 -3.25 C 0.265625 -3.9375 0.40625 -4.535156 0.6875 -5.046875 C 0.976562 -5.566406 1.378906 -5.972656 1.890625 -6.265625 C 2.410156 -6.554688 3.007812 -6.703125 3.6875 -6.703125 Z M 3.6875 -1.15625 C 4.269531 -1.15625 4.734375 -1.347656 5.078125 -1.734375 C 5.429688 -2.128906 5.609375 -2.632812 5.609375 -3.25 C 5.609375 -3.882812 5.429688 -4.398438 5.078125 -4.796875 C 4.734375 -5.203125 4.269531 -5.40625 3.6875 -5.40625 C 3.113281 -5.40625 2.648438 -5.203125 2.296875 -4.796875 C 1.941406 -4.398438 1.765625 -3.882812 1.765625 -3.25 C 1.765625 -2.632812 1.941406 -2.128906 2.296875 -1.734375 C 2.648438 -1.347656 3.113281 -1.15625 3.6875 -1.15625 Z M 3.6875 -1.15625 "/></g></g></g><g fill="#ffffff" fill-opacity="1"><g transform="translate(72.793887, 36.448917)"><g><path d="M 0.296875 -5.59375 C 0.222656 -5.78125 0.21875 -5.945312 0.28125 -6.09375 C 0.34375 -6.238281 0.441406 -6.351562 0.578125 -6.4375 C 0.710938 -6.519531 0.851562 -6.5625 1 -6.5625 C 1.144531 -6.5625 1.28125 -6.515625 1.40625 -6.421875 C 1.539062 -6.335938 1.628906 -6.238281 1.671875 -6.125 L 3.359375 -2.296875 L 4.96875 -5.609375 C 5.03125 -5.753906 5.117188 -5.863281 5.234375 -5.9375 C 5.359375 -6.007812 5.492188 -6.046875 5.640625 -6.046875 C 5.960938 -6.046875 6.191406 -5.90625 6.328125 -5.625 L 7.953125 -2.265625 L 9.609375 -6.109375 C 9.753906 -6.410156 9.988281 -6.5625 10.3125 -6.5625 C 10.53125 -6.5625 10.71875 -6.46875 10.875 -6.28125 C 11.039062 -6.101562 11.066406 -5.878906 10.953125 -5.609375 L 8.671875 -0.25 C 8.578125 0 8.359375 0.125 8.015625 0.125 C 7.867188 0.125 7.734375 0.0976562 7.609375 0.046875 C 7.484375 -0.00390625 7.382812 -0.0976562 7.3125 -0.234375 L 5.671875 -3.734375 L 3.96875 -0.25 C 3.851562 0 3.625 0.125 3.28125 0.125 C 3.132812 0.125 3.003906 0.0976562 2.890625 0.046875 C 2.773438 -0.00390625 2.6875 -0.109375 2.625 -0.265625 Z M 0.296875 -5.59375 "/></g></g></g><g fill="#ffffff" fill-opacity="1"><g transform="translate(84.032325, 36.448917)"><g><path d="M 3.6875 -1.15625 C 3.9375 -1.15625 4.179688 -1.1875 4.421875 -1.25 C 4.660156 -1.320312 4.882812 -1.4375 5.09375 -1.59375 C 5.289062 -1.78125 5.484375 -1.863281 5.671875 -1.84375 C 5.867188 -1.832031 6.03125 -1.765625 6.15625 -1.640625 C 6.28125 -1.515625 6.34375 -1.359375 6.34375 -1.171875 C 6.34375 -0.992188 6.25 -0.816406 6.0625 -0.640625 C 5.757812 -0.347656 5.398438 -0.144531 4.984375 -0.03125 C 4.578125 0.0820312 4.160156 0.132812 3.734375 0.125 C 3.054688 0.125 2.460938 -0.0078125 1.953125 -0.28125 C 1.441406 -0.5625 1.039062 -0.945312 0.75 -1.4375 C 0.46875 -1.925781 0.328125 -2.492188 0.328125 -3.140625 C 0.328125 -3.835938 0.460938 -4.453125 0.734375 -4.984375 C 1.015625 -5.523438 1.40625 -5.945312 1.90625 -6.25 C 2.40625 -6.550781 3 -6.703125 3.6875 -6.703125 C 4.375 -6.703125 4.957031 -6.5625 5.4375 -6.28125 C 5.925781 -6 6.296875 -5.601562 6.546875 -5.09375 C 6.804688 -4.59375 6.9375 -4.007812 6.9375 -3.34375 C 6.9375 -3.125 6.890625 -2.9375 6.796875 -2.78125 C 6.710938 -2.632812 6.488281 -2.5625 6.125 -2.5625 L 1.8125 -2.5625 C 1.9375 -2.144531 2.164062 -1.804688 2.5 -1.546875 C 2.832031 -1.285156 3.226562 -1.15625 3.6875 -1.15625 Z M 3.703125 -5.421875 C 3.203125 -5.421875 2.785156 -5.265625 2.453125 -4.953125 C 2.117188 -4.640625 1.90625 -4.226562 1.8125 -3.71875 L 5.5625 -3.71875 C 5.519531 -4.226562 5.351562 -4.640625 5.0625 -4.953125 C 4.769531 -5.265625 4.316406 -5.421875 3.703125 -5.421875 Z M 3.703125 -5.421875 "/></g></g></g><g fill="#ffffff" fill-opacity="1"><g transform="translate(91.528853, 36.448917)"><g><path d="M 4.34375 -6.703125 C 4.945312 -6.703125 5.457031 -6.566406 5.875 -6.296875 C 6.300781 -6.035156 6.625 -5.671875 6.84375 -5.203125 C 7.070312 -4.742188 7.1875 -4.207031 7.1875 -3.59375 L 7.1875 -0.671875 C 7.1875 -0.472656 7.117188 -0.3125 6.984375 -0.1875 C 6.859375 -0.0625 6.679688 0 6.453125 0 C 6.234375 0 6.054688 -0.0625 5.921875 -0.1875 C 5.785156 -0.3125 5.71875 -0.472656 5.71875 -0.671875 L 5.71875 -3.609375 C 5.71875 -4.140625 5.585938 -4.570312 5.328125 -4.90625 C 5.078125 -5.238281 4.675781 -5.40625 4.125 -5.40625 C 3.96875 -5.40625 3.773438 -5.359375 3.546875 -5.265625 C 3.316406 -5.179688 3.09375 -5.046875 2.875 -4.859375 C 2.65625 -4.679688 2.472656 -4.453125 2.328125 -4.171875 C 2.179688 -3.898438 2.109375 -3.578125 2.109375 -3.203125 L 2.109375 -0.65625 C 2.109375 -0.21875 1.875 0 1.40625 0 C 1.1875 0 1.003906 -0.0546875 0.859375 -0.171875 C 0.710938 -0.285156 0.640625 -0.445312 0.640625 -0.65625 L 0.640625 -5.90625 C 0.640625 -6.125 0.710938 -6.285156 0.859375 -6.390625 C 1.015625 -6.503906 1.1875 -6.5625 1.375 -6.5625 C 1.5625 -6.5625 1.726562 -6.503906 1.875 -6.390625 C 2.03125 -6.285156 2.109375 -6.132812 2.109375 -5.9375 L 2.109375 -5.84375 C 2.484375 -6.1875 2.867188 -6.414062 3.265625 -6.53125 C 3.660156 -6.644531 4.019531 -6.703125 4.34375 -6.703125 Z M 4.34375 -6.703125 "/></g></g></g><g fill="#18cb96" fill-opacity="1"><g transform="translate(99.372072, 36.448917)"><g><path d="M 3.546875 -1.21875 C 3.742188 -1.332031 3.921875 -1.375 4.078125 -1.34375 C 4.242188 -1.3125 4.375 -1.234375 4.46875 -1.109375 C 4.570312 -0.992188 4.625 -0.859375 4.625 -0.703125 C 4.625 -0.597656 4.585938 -0.488281 4.515625 -0.375 C 4.441406 -0.257812 4.332031 -0.164062 4.1875 -0.09375 C 4 0.0078125 3.828125 0.0703125 3.671875 0.09375 C 3.523438 0.113281 3.347656 0.125 3.140625 0.125 C 2.578125 0.125 2.144531 0.0078125 1.84375 -0.21875 C 1.539062 -0.445312 1.332031 -0.742188 1.21875 -1.109375 C 1.113281 -1.484375 1.0625 -1.878906 1.0625 -2.296875 L 1.0625 -5.34375 L 0.5625 -5.34375 C 0.320312 -5.34375 0.144531 -5.40625 0.03125 -5.53125 C -0.0820312 -5.664062 -0.140625 -5.804688 -0.140625 -5.953125 C -0.140625 -6.109375 -0.0820312 -6.25 0.03125 -6.375 C 0.15625 -6.5 0.332031 -6.5625 0.5625 -6.5625 L 1.0625 -6.5625 L 1.0625 -7.671875 C 1.0625 -7.898438 1.132812 -8.066406 1.28125 -8.171875 C 1.425781 -8.285156 1.59375 -8.34375 1.78125 -8.34375 C 1.957031 -8.34375 2.125 -8.285156 2.28125 -8.171875 C 2.4375 -8.066406 2.515625 -7.898438 2.515625 -7.671875 L 2.515625 -6.5625 L 3.515625 -6.5625 C 3.742188 -6.5625 3.914062 -6.5 4.03125 -6.375 C 4.15625 -6.25 4.21875 -6.109375 4.21875 -5.953125 C 4.21875 -5.796875 4.15625 -5.65625 4.03125 -5.53125 C 3.914062 -5.40625 3.742188 -5.34375 3.515625 -5.34375 L 2.515625 -5.34375 L 2.515625 -2.296875 C 2.515625 -2.109375 2.523438 -1.925781 2.546875 -1.75 C 2.578125 -1.570312 2.632812 -1.425781 2.71875 -1.3125 C 2.8125 -1.195312 2.953125 -1.140625 3.140625 -1.140625 C 3.203125 -1.140625 3.273438 -1.148438 3.359375 -1.171875 C 3.441406 -1.191406 3.503906 -1.207031 3.546875 -1.21875 Z M 3.546875 -1.21875 "/></g></g></g><g fill="#18cb96" fill-opacity="1"><g transform="translate(103.849266, 36.448917)"><g><path d="M 3.6875 -1.15625 C 3.9375 -1.15625 4.179688 -1.1875 4.421875 -1.25 C 4.660156 -1.320312 4.882812 -1.4375 5.09375 -1.59375 C 5.289062 -1.78125 5.484375 -1.863281 5.671875 -1.84375 C 5.867188 -1.832031 6.03125 -1.765625 6.15625 -1.640625 C 6.28125 -1.515625 6.34375 -1.359375 6.34375 -1.171875 C 6.34375 -0.992188 6.25 -0.816406 6.0625 -0.640625 C 5.757812 -0.347656 5.398438 -0.144531 4.984375 -0.03125 C 4.578125 0.0820312 4.160156 0.132812 3.734375 0.125 C 3.054688 0.125 2.460938 -0.0078125 1.953125 -0.28125 C 1.441406 -0.5625 1.039062 -0.945312 0.75 -1.4375 C 0.46875 -1.925781 0.328125 -2.492188 0.328125 -3.140625 C 0.328125 -3.835938 0.460938 -4.453125 0.734375 -4.984375 C 1.015625 -5.523438 1.40625 -5.945312 1.90625 -6.25 C 2.40625 -6.550781 3 -6.703125 3.6875 -6.703125 C 4.375 -6.703125 4.957031 -6.5625 5.4375 -6.28125 C 5.925781 -6 6.296875 -5.601562 6.546875 -5.09375 C 6.804688 -4.59375 6.9375 -4.007812 6.9375 -3.34375 C 6.9375 -3.125 6.890625 -2.9375 6.796875 -2.78125 C 6.710938 -2.632812 6.488281 -2.5625 6.125 -2.5625 L 1.8125 -2.5625 C 1.9375 -2.144531 2.164062 -1.804688 2.5 -1.546875 C 2.832031 -1.285156 3.226562 -1.15625 3.6875 -1.15625 Z M 3.703125 -5.421875 C 3.203125 -5.421875 2.785156 -5.265625 2.453125 -4.953125 C 2.117188 -4.640625 1.90625 -4.226562 1.8125 -3.71875 L 5.5625 -3.71875 C 5.519531 -4.226562 5.351562 -4.640625 5.0625 -4.953125 C 4.769531 -5.265625 4.316406 -5.421875 3.703125 -5.421875 Z M 3.703125 -5.421875 "/></g></g></g><g fill="#18cb96" fill-opacity="1"><g transform="translate(111.345794, 36.448917)"><g><path d="M 5.09375 -4.796875 C 4.894531 -5.035156 4.660156 -5.203125 4.390625 -5.296875 C 4.128906 -5.390625 3.867188 -5.4375 3.609375 -5.4375 C 3.046875 -5.4375 2.59375 -5.238281 2.25 -4.84375 C 1.90625 -4.457031 1.734375 -3.929688 1.734375 -3.265625 C 1.734375 -2.628906 1.910156 -2.117188 2.265625 -1.734375 C 2.617188 -1.347656 3.085938 -1.15625 3.671875 -1.15625 C 3.921875 -1.15625 4.179688 -1.195312 4.453125 -1.28125 C 4.722656 -1.375 4.957031 -1.523438 5.15625 -1.734375 C 5.351562 -1.921875 5.539062 -2.019531 5.71875 -2.03125 C 5.90625 -2.039062 6.054688 -1.988281 6.171875 -1.875 C 6.296875 -1.757812 6.363281 -1.613281 6.375 -1.4375 C 6.394531 -1.257812 6.320312 -1.082031 6.15625 -0.90625 C 5.820312 -0.53125 5.4375 -0.265625 5 -0.109375 C 4.5625 0.046875 4.113281 0.125 3.65625 0.125 C 2.976562 0.125 2.378906 -0.015625 1.859375 -0.296875 C 1.347656 -0.578125 0.953125 -0.972656 0.671875 -1.484375 C 0.390625 -1.992188 0.25 -2.582031 0.25 -3.25 C 0.25 -3.945312 0.382812 -4.550781 0.65625 -5.0625 C 0.9375 -5.582031 1.332031 -5.984375 1.84375 -6.265625 C 2.351562 -6.554688 2.941406 -6.703125 3.609375 -6.703125 C 4.085938 -6.703125 4.53125 -6.628906 4.9375 -6.484375 C 5.34375 -6.335938 5.71875 -6.0625 6.0625 -5.65625 C 6.21875 -5.46875 6.285156 -5.285156 6.265625 -5.109375 C 6.242188 -4.941406 6.164062 -4.800781 6.03125 -4.6875 C 5.90625 -4.582031 5.753906 -4.53125 5.578125 -4.53125 C 5.398438 -4.539062 5.238281 -4.628906 5.09375 -4.796875 Z M 5.09375 -4.796875 "/></g></g></g><g fill="#18cb96" fill-opacity="1"><g transform="translate(117.797163, 36.448917)"><g><path d="M 4.265625 -6.703125 C 4.867188 -6.703125 5.378906 -6.566406 5.796875 -6.296875 C 6.222656 -6.035156 6.546875 -5.671875 6.765625 -5.203125 C 6.992188 -4.742188 7.109375 -4.207031 7.109375 -3.59375 L 7.109375 -0.671875 C 7.109375 -0.472656 7.046875 -0.3125 6.921875 -0.1875 C 6.796875 -0.0625 6.613281 0 6.375 0 C 6.15625 0 5.976562 -0.0625 5.84375 -0.1875 C 5.707031 -0.3125 5.640625 -0.472656 5.640625 -0.671875 L 5.640625 -3.609375 C 5.640625 -4.140625 5.507812 -4.570312 5.25 -4.90625 C 5 -5.238281 4.601562 -5.40625 4.0625 -5.40625 C 3.894531 -5.40625 3.703125 -5.367188 3.484375 -5.296875 C 3.265625 -5.222656 3.050781 -5.101562 2.84375 -4.9375 C 2.644531 -4.78125 2.472656 -4.570312 2.328125 -4.3125 C 2.191406 -4.050781 2.125 -3.734375 2.125 -3.359375 L 2.125 -0.671875 C 2.125 -0.472656 2.0625 -0.3125 1.9375 -0.1875 C 1.8125 -0.0625 1.632812 0 1.40625 0 C 1.175781 0 0.988281 -0.0625 0.84375 -0.1875 C 0.707031 -0.3125 0.640625 -0.472656 0.640625 -0.671875 L 0.640625 -7.734375 C 0.640625 -7.929688 0.71875 -8.082031 0.875 -8.1875 C 1.039062 -8.289062 1.210938 -8.34375 1.390625 -8.34375 C 1.578125 -8.34375 1.742188 -8.289062 1.890625 -8.1875 C 2.046875 -8.082031 2.125 -7.929688 2.125 -7.734375 L 2.125 -5.96875 C 2.476562 -6.269531 2.84375 -6.46875 3.21875 -6.5625 C 3.601562 -6.65625 3.953125 -6.703125 4.265625 -6.703125 Z M 4.265625 -6.703125 "/></g></g></g></svg>