<svg xmlns="http://www.w3.org/2000/svg" xmlns:xlink="http://www.w3.org/1999/xlink" width="120" zoomAndPan="magnify" viewBox="0 0 90 52.499999" height="70" preserveAspectRatio="xMidYMid meet" version="1.0"><defs><g/><clipPath id="653fd619da"><path d="M 3.246094 19 L 15.878906 19 L 15.878906 31.402344 L 3.246094 31.402344 Z M 3.246094 19 " clip-rule="nonzero"/></clipPath><clipPath id="43ba41f455"><path d="M 3.496094 27.707031 L 3.515625 30.125 C 3.519531 30.714844 4.003906 31.195312 4.585938 31.121094 C 6.363281 30.90625 8.035156 30.1875 9.289062 29.082031 C 9.519531 28.886719 9.859375 28.882812 10.097656 29.078125 C 11.390625 30.160156 13.058594 30.851562 14.828125 31.042969 C 15.414062 31.105469 15.890625 30.617188 15.886719 30.027344 L 15.867188 27.609375 C 15.859375 26.921875 15.6875 26.269531 15.382812 25.675781 C 15.175781 25.265625 15.171875 24.777344 15.371094 24.367188 C 15.667969 23.769531 15.832031 23.109375 15.824219 22.425781 L 15.808594 20.003906 C 15.800781 19.417969 15.320312 18.9375 14.734375 19.007812 C 12.960938 19.226562 11.289062 19.941406 10.035156 21.046875 C 9.839844 21.210938 9.863281 21.523438 10.0625 21.6875 C 10.867188 22.347656 11.347656 23.339844 11.359375 24.4375 L 11.367188 25.664062 C 11.375 26.699219 10.945312 27.675781 10.207031 28.355469 C 9.914062 28.625 9.464844 28.625 9.167969 28.363281 C 8.417969 27.695312 7.972656 26.726562 7.964844 25.691406 L 7.953125 24.464844 C 7.945312 23.390625 8.414062 22.371094 9.207031 21.695312 C 9.402344 21.527344 9.425781 21.214844 9.226562 21.054688 C 7.929688 19.96875 6.265625 19.277344 4.492188 19.089844 C 3.90625 19.027344 3.433594 19.511719 3.4375 20.101562 L 3.457031 22.519531 C 3.460938 23.207031 3.636719 23.863281 3.941406 24.457031 C 4.148438 24.863281 4.152344 25.351562 3.949219 25.765625 C 3.65625 26.363281 3.492188 27.019531 3.496094 27.707031 Z M 3.496094 27.707031 " clip-rule="nonzero"/></clipPath><linearGradient x1="30.226635" gradientTransform="matrix(0.213276, 0, 0, 0.213276, 3.262891, 18.773603)" y1="58.463485" x2="29.773362" gradientUnits="userSpaceOnUse" y2="0.536056" id="a0d13b5e4f"><stop stop-opacity="1" stop-color="rgb(1.599121%, 27.49939%, 94.499207%)" offset="0"/><stop stop-opacity="1" stop-color="rgb(1.599121%, 27.618408%, 94.499207%)" offset="0.00788152"/><stop stop-opacity="1" stop-color="rgb(1.599121%, 27.737427%, 94.499207%)" offset="0.015625"/><stop stop-opacity="1" stop-color="rgb(1.599121%, 27.859497%, 94.499207%)" offset="0.0234375"/><stop stop-opacity="1" stop-color="rgb(1.599121%, 28.105164%, 94.499207%)" offset="0.03125"/><stop stop-opacity="1" stop-color="rgb(1.599121%, 28.35083%, 94.499207%)" offset="0.0390625"/><stop stop-opacity="1" stop-color="rgb(1.599121%, 28.596497%, 94.499207%)" offset="0.046875"/><stop stop-opacity="1" stop-color="rgb(1.599121%, 28.842163%, 94.499207%)" offset="0.0546875"/><stop stop-opacity="1" stop-color="rgb(1.599121%, 29.086304%, 94.499207%)" offset="0.0625"/><stop stop-opacity="1" stop-color="rgb(1.599121%, 29.33197%, 94.499207%)" offset="0.0703125"/><stop stop-opacity="1" stop-color="rgb(1.599121%, 29.577637%, 94.499207%)" offset="0.078125"/><stop stop-opacity="1" stop-color="rgb(1.599121%, 29.823303%, 94.499207%)" offset="0.0859375"/><stop stop-opacity="1" stop-color="rgb(1.599121%, 30.06897%, 94.499207%)" offset="0.09375"/><stop stop-opacity="1" stop-color="rgb(1.599121%, 30.31311%, 94.499207%)" offset="0.101562"/><stop stop-opacity="1" stop-color="rgb(1.599121%, 30.558777%, 94.499207%)" offset="0.109375"/><stop stop-opacity="1" stop-color="rgb(1.599121%, 30.804443%, 94.499207%)" offset="0.117188"/><stop stop-opacity="1" stop-color="rgb(1.599121%, 31.05011%, 94.499207%)" offset="0.125"/><stop stop-opacity="1" stop-color="rgb(1.599121%, 31.29425%, 94.499207%)" offset="0.132812"/><stop stop-opacity="1" stop-color="rgb(1.599121%, 31.539917%, 94.499207%)" offset="0.140625"/><stop stop-opacity="1" stop-color="rgb(1.599121%, 31.785583%, 94.499207%)" offset="0.148438"/><stop stop-opacity="1" stop-color="rgb(1.599121%, 32.03125%, 94.499207%)" offset="0.15625"/><stop stop-opacity="1" stop-color="rgb(1.599121%, 32.276917%, 94.499207%)" offset="0.164062"/><stop stop-opacity="1" stop-color="rgb(1.599121%, 32.521057%, 94.499207%)" offset="0.171875"/><stop stop-opacity="1" stop-color="rgb(1.599121%, 32.766724%, 94.499207%)" offset="0.179688"/><stop stop-opacity="1" stop-color="rgb(1.599121%, 33.01239%, 94.499207%)" offset="0.1875"/><stop stop-opacity="1" stop-color="rgb(1.599121%, 33.258057%, 94.499207%)" offset="0.195312"/><stop stop-opacity="1" stop-color="rgb(1.599121%, 33.503723%, 94.499207%)" offset="0.203125"/><stop stop-opacity="1" stop-color="rgb(1.599121%, 33.747864%, 94.499207%)" offset="0.210938"/><stop stop-opacity="1" stop-color="rgb(1.599121%, 33.99353%, 94.499207%)" offset="0.21875"/><stop stop-opacity="1" stop-color="rgb(1.599121%, 34.239197%, 94.499207%)" offset="0.226562"/><stop stop-opacity="1" stop-color="rgb(1.599121%, 34.484863%, 94.499207%)" offset="0.234375"/><stop stop-opacity="1" stop-color="rgb(1.599121%, 34.73053%, 94.499207%)" offset="0.242188"/><stop stop-opacity="1" stop-color="rgb(1.599121%, 34.97467%, 94.499207%)" offset="0.25"/><stop stop-opacity="1" stop-color="rgb(1.599121%, 35.220337%, 94.499207%)" offset="0.257812"/><stop stop-opacity="1" stop-color="rgb(1.599121%, 35.466003%, 94.499207%)" offset="0.265625"/><stop stop-opacity="1" stop-color="rgb(1.599121%, 35.71167%, 94.499207%)" offset="0.273437"/><stop stop-opacity="1" stop-color="rgb(1.599121%, 35.955811%, 94.499207%)" offset="0.28125"/><stop stop-opacity="1" stop-color="rgb(1.599121%, 36.201477%, 94.499207%)" offset="0.289062"/><stop stop-opacity="1" stop-color="rgb(1.599121%, 36.447144%, 94.499207%)" offset="0.296875"/><stop stop-opacity="1" stop-color="rgb(1.599121%, 36.69281%, 94.499207%)" offset="0.304687"/><stop stop-opacity="1" stop-color="rgb(1.599121%, 36.938477%, 94.499207%)" offset="0.3125"/><stop stop-opacity="1" stop-color="rgb(1.599121%, 37.182617%, 94.499207%)" offset="0.320312"/><stop stop-opacity="1" stop-color="rgb(1.599121%, 37.428284%, 94.499207%)" offset="0.328125"/><stop stop-opacity="1" stop-color="rgb(1.599121%, 37.67395%, 94.499207%)" offset="0.335937"/><stop stop-opacity="1" stop-color="rgb(1.599121%, 37.919617%, 94.499207%)" offset="0.34375"/><stop stop-opacity="1" stop-color="rgb(1.599121%, 38.165283%, 94.499207%)" offset="0.351562"/><stop stop-opacity="1" stop-color="rgb(1.599121%, 38.409424%, 94.499207%)" offset="0.359375"/><stop stop-opacity="1" stop-color="rgb(1.599121%, 38.65509%, 94.499207%)" offset="0.367187"/><stop stop-opacity="1" stop-color="rgb(1.599121%, 38.900757%, 94.499207%)" offset="0.375"/><stop stop-opacity="1" stop-color="rgb(1.599121%, 39.146423%, 94.499207%)" offset="0.382812"/><stop stop-opacity="1" stop-color="rgb(1.599121%, 39.390564%, 94.499207%)" offset="0.390625"/><stop stop-opacity="1" stop-color="rgb(1.599121%, 39.63623%, 94.499207%)" offset="0.398437"/><stop stop-opacity="1" stop-color="rgb(1.599121%, 39.881897%, 94.499207%)" offset="0.40625"/><stop stop-opacity="1" stop-color="rgb(1.599121%, 40.127563%, 94.499207%)" offset="0.414062"/><stop stop-opacity="1" stop-color="rgb(1.599121%, 40.37323%, 94.499207%)" offset="0.421875"/><stop stop-opacity="1" stop-color="rgb(1.599121%, 40.617371%, 94.499207%)" offset="0.429687"/><stop stop-opacity="1" stop-color="rgb(1.599121%, 40.863037%, 94.499207%)" offset="0.4375"/><stop stop-opacity="1" stop-color="rgb(1.599121%, 41.108704%, 94.499207%)" offset="0.445312"/><stop stop-opacity="1" stop-color="rgb(1.599121%, 41.35437%, 94.499207%)" offset="0.453125"/><stop stop-opacity="1" stop-color="rgb(1.599121%, 41.600037%, 94.499207%)" offset="0.460937"/><stop stop-opacity="1" stop-color="rgb(1.599121%, 41.844177%, 94.499207%)" offset="0.46875"/><stop stop-opacity="1" stop-color="rgb(1.599121%, 42.089844%, 94.499207%)" offset="0.476562"/><stop stop-opacity="1" stop-color="rgb(1.599121%, 42.33551%, 94.499207%)" offset="0.484375"/><stop stop-opacity="1" stop-color="rgb(1.599121%, 42.581177%, 94.499207%)" offset="0.492188"/><stop stop-opacity="1" stop-color="rgb(1.599121%, 42.826843%, 94.499207%)" offset="0.5"/><stop stop-opacity="1" stop-color="rgb(1.599121%, 43.070984%, 94.499207%)" offset="0.507812"/><stop stop-opacity="1" stop-color="rgb(1.599121%, 43.31665%, 94.499207%)" offset="0.515625"/><stop stop-opacity="1" stop-color="rgb(1.599121%, 43.562317%, 94.499207%)" offset="0.523438"/><stop stop-opacity="1" stop-color="rgb(1.599121%, 43.807983%, 94.499207%)" offset="0.53125"/><stop stop-opacity="1" stop-color="rgb(1.599121%, 44.052124%, 94.499207%)" offset="0.539062"/><stop stop-opacity="1" stop-color="rgb(1.599121%, 44.297791%, 94.499207%)" offset="0.546875"/><stop stop-opacity="1" stop-color="rgb(1.599121%, 44.543457%, 94.499207%)" offset="0.554688"/><stop stop-opacity="1" stop-color="rgb(1.599121%, 44.789124%, 94.499207%)" offset="0.5625"/><stop stop-opacity="1" stop-color="rgb(1.599121%, 45.03479%, 94.499207%)" offset="0.570312"/><stop stop-opacity="1" stop-color="rgb(1.599121%, 45.278931%, 94.499207%)" offset="0.578125"/><stop stop-opacity="1" stop-color="rgb(1.599121%, 45.524597%, 94.499207%)" offset="0.585938"/><stop stop-opacity="1" stop-color="rgb(1.599121%, 45.770264%, 94.499207%)" offset="0.59375"/><stop stop-opacity="1" stop-color="rgb(1.599121%, 46.01593%, 94.499207%)" offset="0.601562"/><stop stop-opacity="1" stop-color="rgb(1.599121%, 46.261597%, 94.499207%)" offset="0.609375"/><stop stop-opacity="1" stop-color="rgb(1.599121%, 46.505737%, 94.499207%)" offset="0.617188"/><stop stop-opacity="1" stop-color="rgb(1.599121%, 46.751404%, 94.499207%)" offset="0.625"/><stop stop-opacity="1" stop-color="rgb(1.599121%, 46.99707%, 94.499207%)" offset="0.632812"/><stop stop-opacity="1" stop-color="rgb(1.599121%, 47.242737%, 94.499207%)" offset="0.640625"/><stop stop-opacity="1" stop-color="rgb(1.599121%, 47.486877%, 94.499207%)" offset="0.648438"/><stop stop-opacity="1" stop-color="rgb(1.599121%, 47.732544%, 94.499207%)" offset="0.65625"/><stop stop-opacity="1" stop-color="rgb(1.599121%, 47.97821%, 94.499207%)" offset="0.664062"/><stop stop-opacity="1" stop-color="rgb(1.599121%, 48.223877%, 94.499207%)" offset="0.671875"/><stop stop-opacity="1" stop-color="rgb(1.599121%, 48.469543%, 94.499207%)" offset="0.679688"/><stop stop-opacity="1" stop-color="rgb(1.599121%, 48.713684%, 94.499207%)" offset="0.6875"/><stop stop-opacity="1" stop-color="rgb(1.599121%, 48.959351%, 94.499207%)" offset="0.695312"/><stop stop-opacity="1" stop-color="rgb(1.599121%, 49.205017%, 94.499207%)" offset="0.703125"/><stop stop-opacity="1" stop-color="rgb(1.599121%, 49.450684%, 94.499207%)" offset="0.710938"/><stop stop-opacity="1" stop-color="rgb(1.599121%, 49.69635%, 94.499207%)" offset="0.71875"/><stop stop-opacity="1" stop-color="rgb(1.599121%, 49.940491%, 94.499207%)" offset="0.726562"/><stop stop-opacity="1" stop-color="rgb(1.599121%, 50.186157%, 94.499207%)" offset="0.734375"/><stop stop-opacity="1" stop-color="rgb(1.599121%, 50.431824%, 94.499207%)" offset="0.742188"/><stop stop-opacity="1" stop-color="rgb(1.599121%, 50.67749%, 94.499207%)" offset="0.75"/><stop stop-opacity="1" stop-color="rgb(1.599121%, 50.923157%, 94.499207%)" offset="0.757812"/><stop stop-opacity="1" stop-color="rgb(1.599121%, 51.167297%, 94.499207%)" offset="0.765625"/><stop stop-opacity="1" stop-color="rgb(1.599121%, 51.412964%, 94.499207%)" offset="0.773438"/><stop stop-opacity="1" stop-color="rgb(1.599121%, 51.65863%, 94.499207%)" offset="0.78125"/><stop stop-opacity="1" stop-color="rgb(1.599121%, 51.904297%, 94.499207%)" offset="0.789062"/><stop stop-opacity="1" stop-color="rgb(1.599121%, 52.148438%, 94.499207%)" offset="0.796875"/><stop stop-opacity="1" stop-color="rgb(1.599121%, 52.394104%, 94.499207%)" offset="0.804688"/><stop stop-opacity="1" stop-color="rgb(1.599121%, 52.639771%, 94.499207%)" offset="0.8125"/><stop stop-opacity="1" stop-color="rgb(1.599121%, 52.885437%, 94.499207%)" offset="0.820312"/><stop stop-opacity="1" stop-color="rgb(1.599121%, 53.131104%, 94.499207%)" offset="0.828125"/><stop stop-opacity="1" stop-color="rgb(1.599121%, 53.375244%, 94.499207%)" offset="0.835938"/><stop stop-opacity="1" stop-color="rgb(1.599121%, 53.620911%, 94.499207%)" offset="0.84375"/><stop stop-opacity="1" stop-color="rgb(1.599121%, 53.866577%, 94.499207%)" offset="0.851562"/><stop stop-opacity="1" stop-color="rgb(1.599121%, 54.112244%, 94.499207%)" offset="0.859375"/><stop stop-opacity="1" stop-color="rgb(1.599121%, 54.35791%, 94.499207%)" offset="0.867188"/><stop stop-opacity="1" stop-color="rgb(1.599121%, 54.602051%, 94.499207%)" offset="0.875"/><stop stop-opacity="1" stop-color="rgb(1.599121%, 54.847717%, 94.499207%)" offset="0.882812"/><stop stop-opacity="1" stop-color="rgb(1.599121%, 55.093384%, 94.499207%)" offset="0.890625"/><stop stop-opacity="1" stop-color="rgb(1.599121%, 55.33905%, 94.499207%)" offset="0.898438"/><stop stop-opacity="1" stop-color="rgb(1.599121%, 55.583191%, 94.499207%)" offset="0.90625"/><stop stop-opacity="1" stop-color="rgb(1.599121%, 55.828857%, 94.499207%)" offset="0.914062"/><stop stop-opacity="1" stop-color="rgb(1.599121%, 56.074524%, 94.499207%)" offset="0.921875"/><stop stop-opacity="1" stop-color="rgb(1.599121%, 56.32019%, 94.499207%)" offset="0.929688"/><stop stop-opacity="1" stop-color="rgb(1.599121%, 56.565857%, 94.499207%)" offset="0.9375"/><stop stop-opacity="1" stop-color="rgb(1.599121%, 56.809998%, 94.499207%)" offset="0.945312"/><stop stop-opacity="1" stop-color="rgb(1.599121%, 57.055664%, 94.499207%)" offset="0.953125"/><stop stop-opacity="1" stop-color="rgb(1.599121%, 57.301331%, 94.499207%)" offset="0.960938"/><stop stop-opacity="1" stop-color="rgb(1.599121%, 57.546997%, 94.499207%)" offset="0.96875"/><stop stop-opacity="1" stop-color="rgb(1.599121%, 57.792664%, 94.499207%)" offset="0.976562"/><stop stop-opacity="1" stop-color="rgb(1.599121%, 58.036804%, 94.499207%)" offset="0.984375"/><stop stop-opacity="1" stop-color="rgb(1.599121%, 58.279419%, 94.499207%)" offset="0.992118"/><stop stop-opacity="1" stop-color="rgb(1.599121%, 58.399963%, 94.499207%)" offset="1"/></linearGradient></defs><g clip-path="url(#653fd619da)"><g clip-path="url(#43ba41f455)"><path fill="url(#a0d13b5e4f)" d="M 3.433594 18.9375 L 3.433594 31.195312 L 15.878906 31.195312 L 15.878906 18.9375 Z M 3.433594 18.9375 " fill-rule="nonzero"/></g></g><g fill="#e6ecf0" fill-opacity="1"><g transform="translate(19.436264, 29.432522)"><g><path d="M 3.390625 0 L 1.375 0 L 1.375 -5.109375 L 0.09375 -5.109375 L 0.09375 -6.84375 L 1.375 -6.84375 L 1.375 -7.15625 C 1.375 -7.394531 1.410156 -7.644531 1.484375 -7.90625 C 1.554688 -8.175781 1.675781 -8.425781 1.84375 -8.65625 C 2.007812 -8.882812 2.234375 -9.066406 2.515625 -9.203125 C 2.804688 -9.347656 3.164062 -9.421875 3.59375 -9.421875 L 5.0625 -9.421875 L 5.0625 -7.734375 L 4.125 -7.734375 C 3.957031 -7.734375 3.816406 -7.695312 3.703125 -7.625 C 3.597656 -7.550781 3.519531 -7.457031 3.46875 -7.34375 C 3.414062 -7.238281 3.390625 -7.125 3.390625 -7 L 3.390625 -6.84375 L 5.046875 -6.84375 L 5.046875 -5.109375 L 3.390625 -5.109375 Z M 3.390625 0 "/></g></g></g><g fill="#e6ecf0" fill-opacity="1"><g transform="translate(24.056465, 29.432522)"><g><path d="M 2.828125 0 L 0.78125 0 L 0.78125 -9.3125 L 2.828125 -9.3125 Z M 2.828125 0 "/></g></g></g><g fill="#e6ecf0" fill-opacity="1"><g transform="translate(27.156798, 29.432522)"><g><path d="M 4.03125 0.21875 C 3.488281 0.21875 2.992188 0.125 2.546875 -0.0625 C 2.109375 -0.25 1.726562 -0.507812 1.40625 -0.84375 C 1.082031 -1.175781 0.832031 -1.5625 0.65625 -2 C 0.476562 -2.445312 0.390625 -2.921875 0.390625 -3.421875 C 0.390625 -3.921875 0.476562 -4.390625 0.65625 -4.828125 C 0.832031 -5.265625 1.082031 -5.648438 1.40625 -5.984375 C 1.726562 -6.328125 2.109375 -6.59375 2.546875 -6.78125 C 2.992188 -6.96875 3.488281 -7.0625 4.03125 -7.0625 C 4.570312 -7.0625 5.066406 -6.96875 5.515625 -6.78125 C 5.960938 -6.59375 6.347656 -6.328125 6.671875 -5.984375 C 6.992188 -5.648438 7.242188 -5.265625 7.421875 -4.828125 C 7.609375 -4.390625 7.703125 -3.921875 7.703125 -3.421875 C 7.703125 -2.921875 7.609375 -2.445312 7.421875 -2 C 7.242188 -1.5625 6.992188 -1.175781 6.671875 -0.84375 C 6.347656 -0.507812 5.960938 -0.25 5.515625 -0.0625 C 5.066406 0.125 4.570312 0.21875 4.03125 0.21875 Z M 4.046875 -1.65625 C 4.367188 -1.65625 4.648438 -1.726562 4.890625 -1.875 C 5.140625 -2.03125 5.332031 -2.238281 5.46875 -2.5 C 5.613281 -2.769531 5.6875 -3.078125 5.6875 -3.421875 C 5.6875 -3.765625 5.613281 -4.066406 5.46875 -4.328125 C 5.332031 -4.597656 5.140625 -4.804688 4.890625 -4.953125 C 4.648438 -5.109375 4.367188 -5.1875 4.046875 -5.1875 C 3.722656 -5.1875 3.4375 -5.109375 3.1875 -4.953125 C 2.945312 -4.804688 2.753906 -4.597656 2.609375 -4.328125 C 2.472656 -4.066406 2.40625 -3.765625 2.40625 -3.421875 C 2.40625 -3.078125 2.472656 -2.769531 2.609375 -2.5 C 2.753906 -2.238281 2.945312 -2.03125 3.1875 -1.875 C 3.4375 -1.726562 3.722656 -1.65625 4.046875 -1.65625 Z M 4.046875 -1.65625 "/></g></g></g><g fill="#e6ecf0" fill-opacity="1"><g transform="translate(34.730825, 29.432522)"><g><path d="M 4.125 0 L 2.3125 0 L 0.046875 -6.84375 L 2.234375 -6.84375 L 3.3125 -3.078125 L 3.421875 -2.65625 L 3.4375 -2.65625 L 3.5625 -3.078125 L 4.625 -6.84375 L 6.09375 -6.84375 L 7.109375 -3.078125 L 7.234375 -2.65625 L 7.25 -2.65625 L 7.40625 -3.109375 L 8.5 -6.84375 L 10.625 -6.84375 L 8.375 0 L 6.515625 0 L 5.328125 -3.78125 L 5.3125 -3.78125 Z M 4.125 0 "/></g></g></g><g fill="#e6ecf0" fill-opacity="1"><g transform="translate(44.895237, 29.432522)"><g><path d="M 7.515625 -3.46875 C 7.515625 -3.363281 7.507812 -3.269531 7.5 -3.1875 C 7.5 -3.113281 7.488281 -3.019531 7.46875 -2.90625 L 2.421875 -2.90625 C 2.503906 -2.457031 2.679688 -2.113281 2.953125 -1.875 C 3.234375 -1.644531 3.570312 -1.53125 3.96875 -1.53125 C 4.320312 -1.53125 4.59375 -1.597656 4.78125 -1.734375 C 4.976562 -1.867188 5.113281 -2.035156 5.1875 -2.234375 L 7.359375 -2.234375 C 7.285156 -1.929688 7.15625 -1.632812 6.96875 -1.34375 C 6.78125 -1.050781 6.539062 -0.785156 6.25 -0.546875 C 5.96875 -0.316406 5.632812 -0.132812 5.25 0 C 4.875 0.144531 4.457031 0.21875 4 0.21875 C 3.46875 0.21875 2.976562 0.125 2.53125 -0.0625 C 2.09375 -0.25 1.710938 -0.507812 1.390625 -0.84375 C 1.066406 -1.1875 0.816406 -1.578125 0.640625 -2.015625 C 0.472656 -2.453125 0.390625 -2.921875 0.390625 -3.421875 C 0.390625 -3.921875 0.472656 -4.390625 0.640625 -4.828125 C 0.816406 -5.265625 1.066406 -5.648438 1.390625 -5.984375 C 1.710938 -6.328125 2.09375 -6.59375 2.53125 -6.78125 C 2.976562 -6.96875 3.46875 -7.0625 4 -7.0625 C 4.539062 -7.0625 5.023438 -6.96875 5.453125 -6.78125 C 5.878906 -6.59375 6.242188 -6.332031 6.546875 -6 C 6.859375 -5.664062 7.097656 -5.28125 7.265625 -4.84375 C 7.429688 -4.414062 7.515625 -3.957031 7.515625 -3.46875 Z M 2.5 -4.28125 L 5.4375 -4.28125 C 5.40625 -4.5 5.320312 -4.691406 5.1875 -4.859375 C 5.0625 -5.023438 4.894531 -5.15625 4.6875 -5.25 C 4.476562 -5.34375 4.253906 -5.390625 4.015625 -5.390625 C 3.804688 -5.390625 3.597656 -5.351562 3.390625 -5.28125 C 3.191406 -5.207031 3.015625 -5.085938 2.859375 -4.921875 C 2.703125 -4.765625 2.582031 -4.550781 2.5 -4.28125 Z M 2.5 -4.28125 "/></g></g></g><g fill="#e6ecf0" fill-opacity="1"><g transform="translate(52.211549, 29.432522)"><g><path d="M 2.828125 0 L 0.78125 0 L 0.78125 -6.84375 L 2.734375 -6.84375 L 2.734375 -6.015625 C 2.859375 -6.222656 3.03125 -6.40625 3.25 -6.5625 C 3.46875 -6.71875 3.710938 -6.835938 3.984375 -6.921875 C 4.265625 -7.015625 4.5625 -7.0625 4.875 -7.0625 C 5.5 -7.0625 6.007812 -6.925781 6.40625 -6.65625 C 6.8125 -6.382812 7.113281 -5.992188 7.3125 -5.484375 C 7.507812 -4.984375 7.609375 -4.378906 7.609375 -3.671875 L 7.609375 0 L 5.578125 0 L 5.578125 -3.625 C 5.578125 -4.007812 5.519531 -4.316406 5.40625 -4.546875 C 5.300781 -4.773438 5.15625 -4.941406 4.96875 -5.046875 C 4.78125 -5.148438 4.554688 -5.203125 4.296875 -5.203125 C 4.046875 -5.203125 3.804688 -5.132812 3.578125 -5 C 3.347656 -4.875 3.164062 -4.675781 3.03125 -4.40625 C 2.894531 -4.144531 2.828125 -3.804688 2.828125 -3.390625 Z M 2.828125 0 "/></g></g></g><g fill="#0495f1" fill-opacity="1"><g transform="translate(60.076559, 29.432522)"><g><path d="M 5.28125 0 L 3.765625 0 C 3.566406 0 3.359375 -0.015625 3.140625 -0.046875 C 2.921875 -0.0859375 2.707031 -0.15625 2.5 -0.25 C 2.289062 -0.351562 2.101562 -0.503906 1.9375 -0.703125 C 1.769531 -0.898438 1.632812 -1.15625 1.53125 -1.46875 C 1.4375 -1.789062 1.390625 -2.191406 1.390625 -2.671875 L 1.390625 -5.109375 L 0.078125 -5.109375 L 0.078125 -6.84375 L 1.390625 -6.84375 L 1.390625 -8.828125 L 3.421875 -8.828125 L 3.421875 -6.84375 L 5.28125 -6.84375 L 5.28125 -5.109375 L 3.421875 -5.109375 L 3.421875 -2.578125 C 3.421875 -2.242188 3.492188 -2.007812 3.640625 -1.875 C 3.796875 -1.738281 3.984375 -1.671875 4.203125 -1.671875 L 5.28125 -1.671875 Z M 5.28125 0 "/></g></g></g><g fill="#0495f1" fill-opacity="1"><g transform="translate(65.18576, 29.432522)"><g><path d="M 7.515625 -3.46875 C 7.515625 -3.363281 7.507812 -3.269531 7.5 -3.1875 C 7.5 -3.113281 7.488281 -3.019531 7.46875 -2.90625 L 2.421875 -2.90625 C 2.503906 -2.457031 2.679688 -2.113281 2.953125 -1.875 C 3.234375 -1.644531 3.570312 -1.53125 3.96875 -1.53125 C 4.320312 -1.53125 4.59375 -1.597656 4.78125 -1.734375 C 4.976562 -1.867188 5.113281 -2.035156 5.1875 -2.234375 L 7.359375 -2.234375 C 7.285156 -1.929688 7.15625 -1.632812 6.96875 -1.34375 C 6.78125 -1.050781 6.539062 -0.785156 6.25 -0.546875 C 5.96875 -0.316406 5.632812 -0.132812 5.25 0 C 4.875 0.144531 4.457031 0.21875 4 0.21875 C 3.46875 0.21875 2.976562 0.125 2.53125 -0.0625 C 2.09375 -0.25 1.710938 -0.507812 1.390625 -0.84375 C 1.066406 -1.1875 0.816406 -1.578125 0.640625 -2.015625 C 0.472656 -2.453125 0.390625 -2.921875 0.390625 -3.421875 C 0.390625 -3.921875 0.472656 -4.390625 0.640625 -4.828125 C 0.816406 -5.265625 1.066406 -5.648438 1.390625 -5.984375 C 1.710938 -6.328125 2.09375 -6.59375 2.53125 -6.78125 C 2.976562 -6.96875 3.46875 -7.0625 4 -7.0625 C 4.539062 -7.0625 5.023438 -6.96875 5.453125 -6.78125 C 5.878906 -6.59375 6.242188 -6.332031 6.546875 -6 C 6.859375 -5.664062 7.097656 -5.28125 7.265625 -4.84375 C 7.429688 -4.414062 7.515625 -3.957031 7.515625 -3.46875 Z M 2.5 -4.28125 L 5.4375 -4.28125 C 5.40625 -4.5 5.320312 -4.691406 5.1875 -4.859375 C 5.0625 -5.023438 4.894531 -5.15625 4.6875 -5.25 C 4.476562 -5.34375 4.253906 -5.390625 4.015625 -5.390625 C 3.804688 -5.390625 3.597656 -5.351562 3.390625 -5.28125 C 3.191406 -5.207031 3.015625 -5.085938 2.859375 -4.921875 C 2.703125 -4.765625 2.582031 -4.550781 2.5 -4.28125 Z M 2.5 -4.28125 "/></g></g></g><g fill="#0495f1" fill-opacity="1"><g transform="translate(72.502072, 29.432522)"><g><path d="M 3.96875 0.21875 C 3.4375 0.21875 2.953125 0.125 2.515625 -0.0625 C 2.078125 -0.25 1.695312 -0.507812 1.375 -0.84375 C 1.0625 -1.1875 0.816406 -1.578125 0.640625 -2.015625 C 0.472656 -2.453125 0.390625 -2.921875 0.390625 -3.421875 C 0.390625 -3.921875 0.472656 -4.390625 0.640625 -4.828125 C 0.816406 -5.265625 1.0625 -5.648438 1.375 -5.984375 C 1.695312 -6.316406 2.078125 -6.578125 2.515625 -6.765625 C 2.953125 -6.960938 3.4375 -7.0625 3.96875 -7.0625 C 4.4375 -7.0625 4.863281 -6.988281 5.25 -6.84375 C 5.644531 -6.707031 5.992188 -6.507812 6.296875 -6.25 C 6.597656 -6 6.847656 -5.703125 7.046875 -5.359375 C 7.253906 -5.023438 7.398438 -4.660156 7.484375 -4.265625 L 5.421875 -4.265625 C 5.296875 -4.585938 5.101562 -4.820312 4.84375 -4.96875 C 4.582031 -5.113281 4.296875 -5.1875 3.984375 -5.1875 C 3.710938 -5.1875 3.457031 -5.117188 3.21875 -4.984375 C 2.976562 -4.847656 2.78125 -4.644531 2.625 -4.375 C 2.476562 -4.113281 2.40625 -3.796875 2.40625 -3.421875 C 2.40625 -3.046875 2.476562 -2.722656 2.625 -2.453125 C 2.78125 -2.191406 2.976562 -1.992188 3.21875 -1.859375 C 3.457031 -1.722656 3.710938 -1.65625 3.984375 -1.65625 C 4.296875 -1.65625 4.582031 -1.734375 4.84375 -1.890625 C 5.101562 -2.046875 5.296875 -2.316406 5.421875 -2.703125 L 7.484375 -2.703125 C 7.398438 -2.273438 7.257812 -1.882812 7.0625 -1.53125 C 6.863281 -1.175781 6.613281 -0.867188 6.3125 -0.609375 C 6.007812 -0.347656 5.660156 -0.144531 5.265625 0 C 4.867188 0.144531 4.4375 0.21875 3.96875 0.21875 Z M 3.96875 0.21875 "/></g></g></g><g fill="#0495f1" fill-opacity="1"><g transform="translate(79.765519, 29.432522)"><g><path d="M 2.828125 0 L 0.78125 0 L 0.78125 -9.3125 L 2.828125 -9.3125 L 2.828125 -6.859375 L 2.78125 -6.078125 C 3 -6.390625 3.285156 -6.628906 3.640625 -6.796875 C 3.992188 -6.972656 4.40625 -7.0625 4.875 -7.0625 C 5.5 -7.0625 6.007812 -6.925781 6.40625 -6.65625 C 6.8125 -6.382812 7.113281 -5.992188 7.3125 -5.484375 C 7.507812 -4.984375 7.609375 -4.378906 7.609375 -3.671875 L 7.609375 0 L 5.578125 0 L 5.578125 -3.625 C 5.578125 -4.007812 5.519531 -4.316406 5.40625 -4.546875 C 5.300781 -4.773438 5.15625 -4.941406 4.96875 -5.046875 C 4.78125 -5.148438 4.554688 -5.203125 4.296875 -5.203125 C 4.046875 -5.203125 3.804688 -5.125 3.578125 -4.96875 C 3.347656 -4.820312 3.164062 -4.613281 3.03125 -4.34375 C 2.894531 -4.070312 2.828125 -3.753906 2.828125 -3.390625 Z M 2.828125 0 "/></g></g></g></svg>